<?xml version="1.0" standalone="no"?>
<!DOCTYPE svg PUBLIC "-//W3C//DTD SVG 1.1//EN"
"http://www.w3.org/Graphics/SVG/1.1/DTD/svg11.dtd">

<svg width="446" height="522" view_box="0 0 446 522"
xmlns="http://www.w3.org/2000/svg"
xmlns:link="http://www.w3.org/1999/xlink">\n\n<desc>Généré par Mocodo 2.3.7 le Thu, 23 Jun 2022 04:58:58</desc>

<rect id="frame" x="0" y="0" width="446" height="522" fill="#f7f7f7" stroke="none" stroke-width="0"/>

<!-- Association contient -->
<line x1="233" y1="60" x2="233" y2="161" stroke="#d6604d" stroke-width="2"/>
<text x="238.0" y="128" fill="#2166ac" font-family="Verdana" font-size="12">1,N</text>
<line x1="233" y1="253" x2="233" y2="161" stroke="#d6604d" stroke-width="2"/>
<text x="238.0" y="203" fill="#2166ac" font-family="Verdana" font-size="12">1,1</text>
<g id="association-contient">
	<path d="M 251 136 a 14 14 90 0 1 14 14 V 161 h -64 V 150 a 14 14 90 0 1 14 -14" fill="#f4a582" stroke="#f4a582" stroke-width="0"/>
	<path d="M 265 161.0 v 11 a 14 14 90 0 1 -14 14 H 215 a 14 14 90 0 1 -14 -14 V 161.0 H 64" fill="#fddbc7" stroke="#fddbc7" stroke-width="0"/>
	<rect x="201" y="136" width="64" height="50" fill="none" rx="14" stroke="#d6604d" stroke-width="2"/>
	<line x1="201" y1="161" x2="265" y2="161" stroke="#d6604d" stroke-width="1"/>
	<text x="208" y="153.7" fill="#000000" font-family="Verdana" font-size="12">contient</text>
</g>

<!-- Association appartient -->
<line x1="233" y1="253" x2="233" y2="345" stroke="#d6604d" stroke-width="2"/>
<text x="238.0" y="312" fill="#2166ac" font-family="Verdana" font-size="12">1,N</text>
<line x1="233" y1="454" x2="233" y2="345" stroke="#d6604d" stroke-width="2"/>
<text x="238.0" y="387" fill="#2166ac" font-family="Verdana" font-size="12">1,N</text>
<g id="association-appartient">
	<path d="M 258 320 a 14 14 90 0 1 14 14 V 345 h -78 V 334 a 14 14 90 0 1 14 -14" fill="#f4a582" stroke="#f4a582" stroke-width="0"/>
	<path d="M 272 345.0 v 11 a 14 14 90 0 1 -14 14 H 208 a 14 14 90 0 1 -14 -14 V 345.0 H 78" fill="#fddbc7" stroke="#fddbc7" stroke-width="0"/>
	<rect x="194" y="320" width="78" height="50" fill="none" rx="14" stroke="#d6604d" stroke-width="2"/>
	<line x1="194" y1="345" x2="272" y2="345" stroke="#d6604d" stroke-width="1"/>
	<text x="201" y="337.7" fill="#000000" font-family="Verdana" font-size="12">appartient</text>
	<text x="201" y="362.8" fill="#000000" font-family="Verdana" font-size="12">score</text>
</g>

<!-- Association possède -->
<line x1="233" y1="60" x2="333" y2="60" stroke="#d6604d" stroke-width="2"/>
<text x="274" y="77.0" fill="#2166ac" font-family="Verdana" font-size="12">1,1</text>
<line x1="417" y1="60" x2="333" y2="60" stroke="#d6604d" stroke-width="2"/>
<text x="370" y="77.0" fill="#2166ac" font-family="Verdana" font-size="12">1,N</text>
<g id="association-possède">
	<path d="M 351 35 a 14 14 90 0 1 14 14 V 60 h -64 V 49 a 14 14 90 0 1 14 -14" fill="#f4a582" stroke="#f4a582" stroke-width="0"/>
	<path d="M 365 60.0 v 11 a 14 14 90 0 1 -14 14 H 315 a 14 14 90 0 1 -14 -14 V 60.0 H 64" fill="#fddbc7" stroke="#fddbc7" stroke-width="0"/>
	<rect x="301" y="35" width="64" height="50" fill="none" rx="14" stroke="#d6604d" stroke-width="2"/>
	<line x1="301" y1="60" x2="365" y2="60" stroke="#d6604d" stroke-width="1"/>
	<text x="308" y="52.7" fill="#000000" font-family="Verdana" font-size="12">possède</text>
</g>

<!-- Association détiens -->
<line x1="233" y1="60" x2="135" y2="60" stroke="#d6604d" stroke-width="2"/>
<text x="171" y="77.0" fill="#2166ac" font-family="Verdana" font-size="12">1,1</text>
<line x1="41" y1="60" x2="135" y2="60" stroke="#d6604d" stroke-width="2"/>
<text x="78" y="77.0" fill="#2166ac" font-family="Verdana" font-size="12">1,N</text>
<g id="association-détiens">
	<path d="M 151 35 a 14 14 90 0 1 14 14 V 60 h -60 V 49 a 14 14 90 0 1 14 -14" fill="#f4a582" stroke="#f4a582" stroke-width="0"/>
	<path d="M 165 60.0 v 11 a 14 14 90 0 1 -14 14 H 119 a 14 14 90 0 1 -14 -14 V 60.0 H 60" fill="#fddbc7" stroke="#fddbc7" stroke-width="0"/>
	<rect x="105" y="35" width="60" height="50" fill="none" rx="14" stroke="#d6604d" stroke-width="2"/>
	<line x1="105" y1="60" x2="165" y2="60" stroke="#d6604d" stroke-width="1"/>
	<text x="112" y="52.7" fill="#000000" font-family="Verdana" font-size="12">détiens</text>
</g>

<!-- Entity category -->
<g id="entity-category">
	<g id="frame-category">
		<rect x="9" y="26" width="64" height="25" fill="#92c5de" stroke="#92c5de" stroke-width="0"/>
		<rect x="9" y="51.0" width="64" height="43" fill="#d1e5f0" stroke="#d1e5f0" stroke-width="0"/>
		<rect x="9" y="26" width="64" height="68" fill="none" stroke="#4393c3" stroke-width="2"/>
		<line x1="9" y1="51" x2="73" y2="51" stroke="#4393c3" stroke-width="1"/>
	</g>
	<text x="14" y="43.7" fill="#000000" font-family="Verdana" font-size="12">category</text>
	<text x="14" y="68.8" fill="#000000" font-family="Verdana" font-size="12">id</text>
	<line x1="14" y1="71" x2="26" y2="71" stroke="#000000" stroke-width="1"/>
	<text x="14" y="85.8" fill="#000000" font-family="Verdana" font-size="12">name</text>
</g>

<!-- Entity type -->
<g id="entity-type">
	<g id="frame-type">
		<rect x="397" y="26" width="40" height="25" fill="#92c5de" stroke="#92c5de" stroke-width="0"/>
		<rect x="397" y="51.0" width="40" height="43" fill="#d1e5f0" stroke="#d1e5f0" stroke-width="0"/>
		<rect x="397" y="26" width="40" height="68" fill="none" stroke="#4393c3" stroke-width="2"/>
		<line x1="397" y1="51" x2="437" y2="51" stroke="#4393c3" stroke-width="1"/>
	</g>
	<text x="403" y="43.7" fill="#000000" font-family="Verdana" font-size="12">type</text>
	<text x="402" y="68.8" fill="#000000" font-family="Verdana" font-size="12">id</text>
	<line x1="402" y1="71" x2="414" y2="71" stroke="#000000" stroke-width="1"/>
	<text x="402" y="85.8" fill="#000000" font-family="Verdana" font-size="12">label</text>
</g>

<!-- Entity answer -->
<g id="entity-answer">
	<g id="frame-answer">
		<rect x="204" y="211" width="58" height="25" fill="#92c5de" stroke="#92c5de" stroke-width="0"/>
		<rect x="204" y="236.0" width="58" height="59" fill="#d1e5f0" stroke="#d1e5f0" stroke-width="0"/>
		<rect x="204" y="211" width="58" height="84" fill="none" stroke="#4393c3" stroke-width="2"/>
		<line x1="204" y1="236" x2="262" y2="236" stroke="#4393c3" stroke-width="1"/>
	</g>
	<text x="211" y="228.7" fill="#000000" font-family="Verdana" font-size="12">answer</text>
	<text x="209" y="253.8" fill="#000000" font-family="Verdana" font-size="12">id</text>
	<line x1="209" y1="256" x2="221" y2="256" stroke="#000000" stroke-width="1"/>
	<text x="209" y="270.8" fill="#000000" font-family="Verdana" font-size="12">position</text>
	<text x="209" y="287.8" fill="#000000" font-family="Verdana" font-size="12">label</text>
</g>

<!-- Entity question -->
<g id="entity-question">
	<g id="frame-question">
		<rect x="197" y="9" width="72" height="25" fill="#92c5de" stroke="#92c5de" stroke-width="0"/>
		<rect x="197" y="34.0" width="72" height="77" fill="#d1e5f0" stroke="#d1e5f0" stroke-width="0"/>
		<rect x="197" y="9" width="72" height="102" fill="none" stroke="#4393c3" stroke-width="2"/>
		<line x1="197" y1="34" x2="269" y2="34" stroke="#4393c3" stroke-width="1"/>
	</g>
	<text x="207" y="26.7" fill="#000000" font-family="Verdana" font-size="12">question</text>
	<text x="202" y="51.7" fill="#000000" font-family="Verdana" font-size="12">id</text>
	<line x1="202" y1="54" x2="214" y2="54" stroke="#000000" stroke-width="1"/>
	<text x="202" y="68.8" fill="#000000" font-family="Verdana" font-size="12">position</text>
	<text x="202" y="85.8" fill="#000000" font-family="Verdana" font-size="12">label</text>
	<text x="202" y="102.8" fill="#000000" font-family="Verdana" font-size="12">coefficient</text>
</g>

<!-- Entity solution -->
<g id="entity-solution">
	<g id="frame-solution">
		<rect x="194" y="395" width="78" height="25" fill="#92c5de" stroke="#92c5de" stroke-width="0"/>
		<rect x="194" y="420.0" width="78" height="93" fill="#d1e5f0" stroke="#d1e5f0" stroke-width="0"/>
		<rect x="194" y="395" width="78" height="118" fill="none" stroke="#4393c3" stroke-width="2"/>
		<line x1="194" y1="420" x2="272" y2="420" stroke="#4393c3" stroke-width="1"/>
	</g>
	<text x="209" y="412.7" fill="#000000" font-family="Verdana" font-size="12">solution</text>
	<text x="199" y="437.7" fill="#000000" font-family="Verdana" font-size="12">id</text>
	<line x1="199" y1="440" x2="211" y2="440" stroke="#000000" stroke-width="1"/>
	<text x="199" y="454.8" fill="#000000" font-family="Verdana" font-size="12">name</text>
	<text x="199" y="471.8" fill="#000000" font-family="Verdana" font-size="12">logo_url</text>
	<text x="199" y="488.8" fill="#000000" font-family="Verdana" font-size="12">site_url</text>
	<text x="199" y="505.8" fill="#000000" font-family="Verdana" font-size="12">description</text>
</g>
</svg>